<svg width="512" height="512" viewBox="0 0 512 512" fill="none" xmlns="http://www.w3.org/2000/svg">
<rect width="512" height="512" fill="#E5E5E5"/>
<g id="bookshelf 1">
<path id="Vector" d="M445.91 419.16H65.23V453.965H445.91V419.16Z" fill="#AD644B"/>
<path id="Vector_2" d="M90.156 419.16H65.23V453.965H90.156V419.16Z" fill="#99523F"/>
<path id="Vector_3" d="M442.449 419.162V496.907C442.449 502.257 446.739 506.594 452.031 506.594H477.275C482.567 506.594 486.857 502.257 486.857 496.907V419.162H442.449Z" fill="#AD644B"/>
<path id="Vector_4" d="M463.054 496.907V419.162H442.449V496.907C442.449 502.257 446.739 506.594 452.031 506.594H472.636C467.344 506.594 463.054 502.257 463.054 496.907Z" fill="#99523F"/>
<path id="Vector_5" d="M25.144 419.162V496.907C25.144 502.257 29.434 506.594 34.726 506.594H59.97C65.262 506.594 69.552 502.257 69.552 496.907V419.162H25.144Z" fill="#AD644B"/>
<path id="Vector_6" d="M45.749 496.907V419.162H25.144V496.907C25.144 502.257 29.434 506.594 34.726 506.594H55.331C50.039 506.594 45.749 502.257 45.749 496.907Z" fill="#99523F"/>
<path id="Vector_7" d="M139.673 375.703H59.348C52.748 375.703 47.348 370.303 47.348 363.703V24.302C47.348 17.702 52.748 12.302 59.348 12.302H139.674C146.274 12.302 151.674 17.702 151.674 24.302V363.703C151.673 370.303 146.273 375.703 139.673 375.703Z" fill="#5DA3E2"/>
<path id="Vector_8" d="M67.953 363.34V24.665C67.953 17.865 73.516 12.302 80.316 12.302H59.711C52.911 12.302 47.348 17.865 47.348 24.665V363.34C47.348 370.139 52.911 375.703 59.711 375.703H80.316C73.516 375.703 67.953 370.14 67.953 363.34Z" fill="#4887CC"/>
<path id="Vector_9" d="M243.999 375.703H163.673C157.073 375.703 151.673 370.303 151.673 363.703V24.302C151.673 17.702 157.073 12.302 163.673 12.302H243.999C250.599 12.302 255.999 17.702 255.999 24.302V363.703C255.999 370.303 250.599 375.703 243.999 375.703Z" fill="#FFD261"/>
<path id="Vector_10" d="M172.06 363.34V24.665C172.06 17.865 177.623 12.302 184.423 12.302H164.036C157.236 12.302 151.673 17.865 151.673 24.665V363.34C151.673 370.139 157.236 375.703 164.036 375.703H184.423C177.623 375.703 172.06 370.14 172.06 363.34Z" fill="#F8BF00"/>
<path id="Vector_11" d="M151.68 268.41H47.35V296.67H151.68V268.41Z" fill="#73BBEF"/>
<path id="Vector_12" d="M67.953 268.41H47.35V296.67H67.953V268.41Z" fill="#5DA3E2"/>
<path id="Vector_13" d="M151.68 93.73H47.35V121.99H151.68V93.73Z" fill="#73BBEF"/>
<path id="Vector_14" d="M67.953 93.73H47.35V121.99H67.953V93.73Z" fill="#5DA3E2"/>
<g id="Group">
<path id="Vector_15" d="M95.585 65.891C91.318 65.891 87.858 62.432 87.858 58.164V46.741C87.858 42.474 91.317 39.014 95.585 39.014C99.853 39.014 103.312 42.473 103.312 46.741V58.165C103.312 62.432 99.852 65.891 95.585 65.891Z" fill="#4887CC"/>
<path id="Vector_16" d="M95.585 347.832C91.318 347.832 87.858 344.373 87.858 340.105V328.682C87.858 324.415 91.317 320.955 95.585 320.955C99.853 320.955 103.312 324.414 103.312 328.682V340.105C103.312 344.372 99.852 347.832 95.585 347.832Z" fill="#4887CC"/>
</g>
<path id="Vector_17" d="M256.01 268.41H151.68V296.67H256.01V268.41Z" fill="#FCD98B"/>
<path id="Vector_18" d="M172.065 268.41H151.68V296.67H172.065V268.41Z" fill="#FFD261"/>
<path id="Vector_19" d="M256.01 93.73H151.68V121.99H256.01V93.73Z" fill="#FCD98B"/>
<path id="Vector_20" d="M172.065 93.73H151.68V121.99H172.065V93.73Z" fill="#FFD261"/>
<g id="Group_2">
<path id="Vector_21" d="M199.911 65.891C195.644 65.891 192.184 62.432 192.184 58.164V46.741C192.184 42.474 195.643 39.014 199.911 39.014C204.179 39.014 207.638 42.473 207.638 46.741V58.165C207.637 62.432 204.178 65.891 199.911 65.891Z" fill="#F8BF00"/>
<path id="Vector_22" d="M199.911 347.832C195.644 347.832 192.184 344.373 192.184 340.105V328.682C192.184 324.415 195.643 320.955 199.911 320.955C204.179 320.955 207.638 324.414 207.638 328.682V340.105C207.637 344.372 204.178 347.832 199.911 347.832Z" fill="#F8BF00"/>
</g>
<path id="Vector_23" d="M502.418 375.703H9.582C4.29 375.703 0 379.993 0 385.285V410.529C0 415.821 4.29 420.111 9.582 420.111H502.418C507.71 420.111 512 415.821 512 410.529V385.285C512 379.993 507.71 375.703 502.418 375.703Z" fill="#AD644B"/>
<path id="Vector_24" d="M502.418 399.505H9.582C4.29 399.505 0 395.215 0 389.923V410.528C0 415.82 4.29 420.11 9.582 420.11H502.418C507.71 420.11 512 415.82 512 410.528V389.923C512 395.215 507.71 399.505 502.418 399.505Z" fill="#99523F"/>
<g id="red-book">
<path id="Vector_25" d="M463.124 347.612L387.643 375.085C381.441 377.342 374.52 374.115 372.262 367.913L256.181 48.98C253.924 42.778 257.151 35.857 263.353 33.599L338.834 6.126C345.036 3.869 351.957 7.096 354.215 13.298L470.297 332.23C472.554 338.433 469.326 345.355 463.124 347.612Z" fill="#C64757"/>
<path id="Vector_26" d="M391.296 360.599L275.462 42.349C273.136 35.959 276.461 28.829 282.851 26.503L263.694 33.476C257.304 35.802 253.979 42.932 256.305 49.322L372.139 367.572C374.465 373.961 381.595 377.287 387.985 374.961L407.142 367.988C400.752 370.314 393.621 366.989 391.296 360.599Z" fill="#B2364B"/>
<path id="Vector_27" d="M349.336 304.923L447.375 269.242L437.71 242.686L339.671 278.367L349.336 304.923Z" fill="#D8556B"/>
<path id="Vector_28" d="M349.333 304.923L368.489 297.951L358.824 271.395L339.669 278.367L349.333 304.923Z" fill="#C64757"/>
<path id="Vector_29" d="M289.59 140.785L387.629 105.104L377.964 78.5478L279.925 114.229L289.59 140.785Z" fill="#D8556B"/>
<path id="Vector_30" d="M289.587 140.784L308.743 133.812L299.078 107.256L279.922 114.228L289.587 140.784Z" fill="#C64757"/>
<path id="Vector_31" d="M315.733 71.563C311.723 73.023 307.289 70.955 305.829 66.945L301.922 56.21C300.462 52.2 302.53 47.766 306.54 46.306C310.55 44.846 314.984 46.914 316.444 50.924L320.351 61.659C321.811 65.67 319.743 70.104 315.733 71.563Z" fill="#B2364B"/>
<path id="Vector_32" d="M412.162 336.5C408.152 337.96 403.718 335.892 402.258 331.882L398.351 321.148C396.891 317.138 398.959 312.704 402.969 311.244C406.979 309.784 411.413 311.852 412.873 315.862L416.78 326.596C418.24 330.607 416.172 335.041 412.162 336.5Z" fill="#C64757"/>
</g>
</g>
</svg>
