<svg id="Capa_1" enable-background="new 0 0 512 512" height="512" viewBox="0 0 512 512" width="512" xmlns="http://www.w3.org/2000/svg"><g><path d="m449.427 20.7-193.427 114.049 198.243-30.136v-81.161c0-2.472-2.687-4.007-4.816-2.752z" fill="#c6c1c8"/><path d="m256 134.749-196.684-99.944c-2.125-1.08-4.641.464-4.641 2.847v61.747z" fill="#c6c1c8"/><path d="m2.714 66.882c-1.369-.367-2.714.665-2.714 2.082v353.312c0 .976.655 1.83 1.598 2.082l248.694 66.637c1.87.501 3.789.751 5.708.751v-356.997z" fill="#f1f1f4"/><path d="m214.793 123.708v268.992c0 39.97-37.914 69.063-76.522 58.718l-138.271-37.05v7.908c0 .976.655 1.83 1.598 2.083l248.694 66.637c1.87.501 3.789.751 5.708.751l11.502-316.223-11.502-40.775z" fill="#dfdde2"/><path d="m227.531 199.682-200.178-53.637c-.943-.253-1.598-1.107-1.598-2.083v-37.192c0-1.418 1.345-2.449 2.714-2.083l200.179 53.638c.943.253 1.598 1.107 1.598 2.083v37.192c-.001 1.417-1.345 2.449-2.715 2.082z" fill="#dd636e"/><path d="m228.647 158.326-13.855-3.712v41.656l12.739 3.413c1.369.367 2.714-.665 2.714-2.083v-37.192c0-.976-.655-1.83-1.598-2.082z" fill="#da4a54"/><path d="m27.353 299.262 85.056 22.791c1.369.367 2.714-.665 2.714-2.083v-76.023c0-.976-.655-1.83-1.598-2.083l-85.056-22.791c-1.369-.367-2.714.665-2.714 2.083v76.023c0 .977.655 1.831 1.598 2.083z" fill="#4073c8"/><path d="m227.531 459.142-85.056-22.791c-.943-.253-1.598-1.107-1.598-2.083v-76.023c0-1.418 1.345-2.449 2.714-2.083l85.056 22.791c.943.253 1.598 1.107 1.598 2.083v76.023c0 1.418-1.344 2.45-2.714 2.083z" fill="#f4dd45"/><path d="m228.647 378.954-13.855-3.712v17.458c0 24.079-13.759 44.209-33.14 54.149l45.879 12.293c1.369.367 2.714-.665 2.714-2.083v-76.023c0-.975-.655-1.83-1.598-2.082z" fill="#f1d333"/><path d="m512 422.276v-353.312c0-1.418-1.345-2.449-2.714-2.083l-253.286 67.868v356.998c1.919 0 3.837-.25 5.706-.751l203.64-54.565 45.056-12.073c.943-.252 1.598-1.106 1.598-2.082z" fill="#f1f1f4"/><path d="m509.286 66.882-38.493 10.314v277.831c0 28.489-19.135 53.427-46.654 60.8l-168.139 45.053v30.867c1.919 0 3.837-.25 5.706-.751l203.64-54.565 45.056-12.073c.943-.253 1.598-1.107 1.598-2.083v-353.311c0-1.418-1.345-2.449-2.714-2.082z" fill="#dfdde2"/><path d="m484.647 179.662-85.056 22.791c-1.369.367-2.714-.665-2.714-2.083v-76.023c0-.976.655-1.83 1.598-2.083l85.056-22.791c1.369-.367 2.714.665 2.714 2.083v76.023c0 .977-.655 1.831-1.598 2.083z" fill="#aad880"/><path d="m470.793 183.375 13.855-3.712c.943-.253 1.598-1.107 1.598-2.083v-76.023c0-1.418-1.345-2.449-2.714-2.083l-12.739 3.413z" fill="#9bd069"/><path d="m484.647 405.504-199.943 53.574c-1.369.367-2.714-.665-2.714-2.083v-80.168c0-.976.655-1.83 1.598-2.083l199.943-53.574c1.369-.367 2.714.665 2.714 2.083v80.168c0 .977-.655 1.831-1.598 2.083z" fill="#4073c8"/><path d="m486.245 403.422v-80.168c0-1.418-1.345-2.449-2.714-2.083l-12.739 3.413v30.443c0 28.489-19.135 53.427-46.654 60.8l-142.148 38.089v3.08c0 1.418 1.345 2.449 2.714 2.082l199.943-53.574c.943-.252 1.598-1.106 1.598-2.082z" fill="#3b66c1"/><path d="m261.708 490.996 203.638-54.565-203.64 54.565z" fill="#c67d66"/><path d="m510.402 424.358-45.056 12.073z" fill="#c67d66"/><path d="m163.446 221.143c-.662 0-1.335-.086-2.005-.266l-70.882-18.993c-4.122-1.104-6.568-5.341-5.464-9.463 1.105-4.122 5.344-6.569 9.463-5.463l70.882 18.993c4.122 1.105 6.568 5.341 5.464 9.463-.925 3.452-4.047 5.729-7.458 5.729zm74.263 53.997c1.104-4.122-1.342-8.359-5.464-9.463l-63.141-16.919c-4.115-1.106-8.358 1.341-9.463 5.463-1.104 4.122 1.342 8.359 5.464 9.463l63.141 16.918c.67.18 1.342.266 2.005.266 3.41 0 6.533-2.276 7.458-5.728zm-26.228 73.46c1.104-4.122-1.342-8.359-5.464-9.463l-63.141-16.919c-4.116-1.108-8.358 1.341-9.463 5.463-1.104 4.122 1.342 8.359 5.464 9.463l63.141 16.919c.67.18 1.342.266 2.005.266 3.411-.001 6.533-2.278 7.458-5.729zm26.228-46.631c1.104-4.122-1.342-8.359-5.464-9.463l-89.368-23.946c-4.116-1.107-8.358 1.341-9.463 5.463-1.104 4.122 1.342 8.359 5.464 9.463l89.368 23.946c.67.18 1.342.266 2.005.266 3.41-.001 6.533-2.278 7.458-5.729zm0 26.83c1.104-4.122-1.342-8.358-5.463-9.463l-89.368-23.947c-4.12-1.107-8.359 1.341-9.463 5.463s1.342 8.358 5.463 9.463l89.368 23.947c.67.18 1.343.266 2.005.266 3.41-.001 6.533-2.278 7.458-5.729zm-115.123 21.736c1.104-4.122-1.342-8.358-5.463-9.463l-89.368-23.947c-4.121-1.106-8.359 1.341-9.463 5.463s1.342 8.358 5.463 9.463l89.368 23.947c.67.18 1.343.266 2.005.266 3.411 0 6.533-2.277 7.458-5.729zm-31.527 72.039c1.104-4.122-1.342-8.359-5.464-9.463l-57.842-15.498c-4.12-1.106-8.358 1.341-9.463 5.463-1.104 4.122 1.342 8.359 5.464 9.463l57.842 15.498c.67.18 1.342.266 2.005.266 3.411 0 6.533-2.277 7.458-5.729zm31.527-45.21c1.104-4.122-1.342-8.359-5.464-9.463l-89.368-23.946c-4.117-1.108-8.358 1.341-9.463 5.463-1.104 4.122 1.342 8.359 5.464 9.463l89.368 23.946c.67.18 1.342.266 2.005.266 3.411-.001 6.533-2.277 7.458-5.729zm0 26.829c1.104-4.122-1.342-8.359-5.464-9.463l-89.368-23.946c-4.117-1.105-8.358 1.341-9.463 5.463-1.104 4.122 1.342 8.359 5.464 9.463l89.368 23.946c.67.18 1.342.266 2.005.266 3.411-.001 6.533-2.277 7.458-5.729zm186.922-250.091 63.614-17.045c4.122-1.104 6.568-5.341 5.464-9.463s-5.344-6.571-9.463-5.463l-63.614 17.045c-4.122 1.104-6.568 5.341-5.464 9.463.925 3.452 4.047 5.728 7.458 5.728.663 0 1.336-.085 2.005-.265zm-25.518 87.325 63.141-16.919c4.122-1.104 6.568-5.341 5.464-9.463-1.105-4.122-5.345-6.57-9.463-5.463l-63.141 16.919c-4.122 1.104-6.568 5.341-5.464 9.463.925 3.452 4.047 5.728 7.458 5.728.663 0 1.336-.085 2.005-.265zm-.236-53.595 89.368-23.947c4.122-1.105 6.567-5.341 5.463-9.463s-5.341-6.57-9.463-5.463l-89.368 23.947c-4.122 1.105-6.567 5.341-5.463 9.463.925 3.452 4.047 5.728 7.458 5.728.662.001 1.335-.085 2.005-.265zm0 26.829 89.368-23.946c4.122-1.104 6.568-5.341 5.464-9.463s-5.344-6.569-9.463-5.463l-89.368 23.946c-4.122 1.104-6.568 5.341-5.464 9.463.925 3.452 4.047 5.728 7.458 5.728.662.001 1.335-.085 2.005-.265zm25.755 50.834 178.735-47.892c4.122-1.104 6.568-5.341 5.464-9.463-1.105-4.122-5.342-6.571-9.463-5.463l-178.736 47.892c-4.121 1.104-6.567 5.341-5.463 9.463.925 3.452 4.047 5.728 7.458 5.728.662.001 1.335-.085 2.005-.265zm-25.755 87.388 115.123-30.847c4.122-1.104 6.568-5.341 5.464-9.463-1.105-4.122-5.343-6.571-9.463-5.463l-115.123 30.847c-4.122 1.104-6.568 5.341-5.464 9.463.925 3.452 4.047 5.728 7.458 5.728.662.001 1.335-.085 2.005-.265zm0-53.658 204.491-54.794c4.121-1.105 6.567-5.341 5.463-9.463-1.105-4.122-5.339-6.569-9.463-5.463l-204.491 54.795c-4.121 1.104-6.567 5.341-5.463 9.463.925 3.452 4.047 5.728 7.458 5.728.662 0 1.335-.086 2.005-.266zm0 26.829 204.491-54.794c4.121-1.105 6.567-5.341 5.463-9.463-1.105-4.122-5.339-6.571-9.463-5.463l-204.491 54.794c-4.121 1.104-6.567 5.341-5.463 9.463.925 3.452 4.047 5.728 7.458 5.728.662.001 1.335-.085 2.005-.265z" fill="#8b818e"/><path d="m488.245 271.261-17.452 4.676v-15.997l13.452-3.604c4.124-1.109 8.359 1.341 9.463 5.463 1.104 4.12-1.342 8.357-5.463 9.462zm-17.452-48.982 17.452-4.676c4.122-1.104 6.568-5.341 5.464-9.463-1.105-4.122-5.342-6.571-9.463-5.463l-13.453 3.605zm22.915 12.69c-1.105-4.122-5.339-6.569-9.463-5.463l-13.452 3.605v15.997l17.452-4.676c4.121-1.105 6.567-5.341 5.463-9.463zm-261.463 84.367-17.453-4.677v15.997l13.453 3.605c.67.18 1.343.266 2.005.266 3.411 0 6.533-2.277 7.458-5.728 1.105-4.122-1.341-8.358-5.463-9.463zm0-53.659-17.452-4.676v15.997l13.453 3.605c.67.18 1.342.266 2.005.266 3.411 0 6.533-2.277 7.458-5.728 1.104-4.123-1.342-8.36-5.464-9.464zm-1.995 42.02c3.411 0 6.533-2.277 7.458-5.728 1.104-4.122-1.342-8.359-5.464-9.463l-17.452-4.676v15.997l13.453 3.605c.67.18 1.343.265 2.005.265z" fill="#756e78"/></g></svg>